<svg version="1.1" viewBox="0.0 0.0 528.0 528.0" fill="none" stroke="none" stroke-linecap="square" stroke-miterlimit="10" xmlns:xlink="http://www.w3.org/1999/xlink" xmlns="http://www.w3.org/2000/svg"><clipPath id="p.0"><path d="m0 0l528.0 0l0 528.0l-528.0 0l0 -528.0z" clip-rule="nonzero"/></clipPath><g clip-path="url(#p.0)"><path fill="#000000" fill-opacity="0.0" d="m0 0l528.0 0l0 528.0l-528.0 0z" fill-rule="evenodd"/><path fill="#9900ff" d="m16.078741 264.0l0 0c0 -133.21803 110.99812 -241.2126 247.92126 -241.2126l0 0c65.75281 0 128.81256 25.413397 175.3068 70.649536c46.494263 45.236145 72.61447 106.58951 72.61447 170.56306l0 0c0 133.21805 -110.99814 241.21259 -247.92126 241.21259l0 0c-136.92313 0 -247.92126 -107.99454 -247.92126 -241.21259z" fill-rule="evenodd"/><path stroke="#000000" stroke-width="1.0" stroke-linejoin="round" stroke-linecap="butt" d="m16.078741 264.0l0 0c0 -133.21803 110.99812 -241.2126 247.92126 -241.2126l0 0c65.75281 0 128.81256 25.413397 175.3068 70.649536c46.494263 45.236145 72.61447 106.58951 72.61447 170.56306l0 0c0 133.21805 -110.99814 241.21259 -247.92126 241.21259l0 0c-136.92313 0 -247.92126 -107.99454 -247.92126 -241.21259z" fill-rule="evenodd"/><path fill="#000000" fill-opacity="0.0" d="m100.06036 -100.06562l373.44882 0l0 665.7953l-373.44882 0z" fill-rule="evenodd"/><path fill="#ffffff" d="m109.06036 420.9344l104.53125 -346.65625l110.9375 0l104.53125 346.65625l-97.0625 0l-38.9375 -168.53125q-5.328125 -25.0625 -12.265625 -54.390625q-6.9375 -29.34375 -12.796875 -55.46875l-2.140625 0q-5.328125 26.125 -11.734375 55.46875q-6.390625 29.328125 -12.265625 54.390625l-38.9375 168.53125l-93.859375 0zm75.203125 -73.59375l0 -70.9375l168.53125 0l0 70.9375l-168.53125 0z" fill-rule="nonzero"/></g></svg>